<svg width="61" height="212" viewBox="0 0 61 212" fill="none" xmlns="http://www.w3.org/2000/svg">
<path d="M59.5039 4.50781C59.6992 4.89844 59.8945 5.48438 60.0898 6.26562C60.2852 6.85156 60.2852 7.53516 60.0898 8.31641C59.5039 9.68359 59.3086 10.4648 59.5039 10.6602C59.6992 10.8555 59.6992 11.1484 59.5039 11.5391C57.5508 13.1016 56.4766 14.7617 56.2812 16.5195C56.0859 18.082 55.5977 19.6445 54.8164 21.207C55.4023 23.9414 55.3047 26.7734 54.5234 29.7031C53.9375 32.6328 53.4492 35.4648 53.0586 38.1992C53.4492 39.5664 54.0352 40.6406 54.8164 41.4219C53.8398 42.9844 53.4492 44.6445 53.6445 46.4023C53.8398 48.1602 53.8398 49.8203 53.6445 51.3828C53.4492 52.1641 53.1562 53.043 52.7656 54.0195C52.5703 54.9961 52.8633 55.875 53.6445 56.6562C53.4492 57.6328 53.1562 59.3906 52.7656 61.9297C52.5703 64.2734 52.1797 66.8125 51.5938 69.5469C51.2031 72.2812 50.8125 74.8203 50.4219 77.1641C50.0312 79.5078 49.6406 80.875 49.25 81.2656C49.8359 82.8281 49.8359 84.3906 49.25 85.9531C48.8594 87.5156 48.4688 89.0781 48.0781 90.6406C47.6875 92.3984 47.5898 93.5703 47.7852 94.1562C48.1758 94.7422 48.2734 95.2305 48.0781 95.6211C47.1016 97.5742 46.7109 99.0391 46.9062 100.016C47.1016 100.992 46.8086 101.871 46.0273 102.652C47.0039 104.801 47.1016 106.852 46.3203 108.805C45.5391 110.562 45.6367 111.93 46.6133 112.906C46.8086 113.688 46.6133 114.273 46.0273 114.664C45.4414 115.055 45.0508 115.543 44.8555 116.129C44.6602 116.91 44.6602 117.594 44.8555 118.18C45.0508 118.766 45.0508 119.352 44.8555 119.938C44.6602 120.523 44.3672 121.012 43.9766 121.402C43.5859 121.793 43.293 122.281 43.0977 122.867C42.9023 123.844 42.9023 125.016 43.0977 126.383C43.293 127.555 43.4883 128.727 43.6836 129.898C42.9023 130.875 42.4141 132.145 42.2188 133.707C42.2188 135.074 42.0234 136.344 41.6328 137.516C40.6562 139.664 40.2656 141.129 40.4609 141.91C40.6562 142.496 40.6562 143.18 40.4609 143.961C40.2656 144.742 39.9727 145.426 39.582 146.012C39.1914 146.598 38.9961 147.184 38.9961 147.77C39.1914 148.941 39.0938 149.723 38.7031 150.113C38.5078 150.504 38.4102 150.895 38.4102 151.285C38.0195 152.457 37.7266 153.531 37.5312 154.508C37.5312 155.484 37.2383 156.559 36.6523 157.73C33.7227 158.316 30.793 159.098 27.8633 160.074C25.1289 160.855 22.1992 160.758 19.0742 159.781C18.8789 158.805 18.3906 158.121 17.6094 157.73C17.0234 157.145 16.2422 156.559 15.2656 155.973C16.4375 154.215 16.8281 153.238 16.4375 153.043C16.2422 152.652 16.0469 152.164 15.8516 151.578V141.91C15.8516 141.324 15.9492 140.836 16.1445 140.445C16.3398 139.859 16.4375 139.273 16.4375 138.688C16.4375 137.711 16.2422 136.93 15.8516 136.344C15.6562 135.562 15.4609 134.684 15.2656 133.707C15.6562 131.168 15.6562 129.605 15.2656 129.02C15.0703 128.238 14.9727 127.457 14.9727 126.676C14.9727 125.504 14.9727 124.332 14.9727 123.16C15.168 121.988 15.168 120.816 14.9727 119.645C14.7773 118.668 14.4844 117.789 14.0938 117.008C13.8984 116.227 13.8008 115.445 13.8008 114.664C13.6055 113.492 13.6055 112.418 13.8008 111.441C13.9961 110.27 14.1914 109.098 14.3867 107.926C14.3867 105.777 14.3867 103.727 14.3867 101.773C14.582 99.8203 14.582 97.7695 14.3867 95.6211C14.1914 94.8398 14.1914 93.9609 14.3867 92.9844C14.582 92.0078 14.1914 91.4219 13.2148 91.2266C13.6055 89.4688 13.7031 87.6133 13.5078 85.6602C13.5078 83.5117 12.8242 81.6562 11.457 80.0938C11.8477 78.3359 11.75 76.4805 11.1641 74.5273C10.5781 72.5742 9.79688 70.8164 8.82031 69.2539C9.21094 68.4727 9.21094 67.6914 8.82031 66.9102C8.625 66.1289 8.42969 65.25 8.23438 64.2734C8.03906 62.7109 7.84375 61.1484 7.64844 59.5859C7.64844 57.8281 7.45312 56.168 7.0625 54.6055C6.67188 53.043 6.28125 51.4805 5.89062 49.918C5.69531 48.1602 5.40234 46.4023 5.01172 44.6445C4.23047 40.543 3.64453 36.4414 3.25391 32.3398C3.05859 28.043 2.96094 23.8438 2.96094 19.7422C3.35156 17.7891 3.05859 16.0313 2.08203 14.4688C1.30078 12.7109 1.39844 11.3438 2.375 10.3672C1.78906 9 1.20312 8.02344 0.617188 7.4375C0.226562 6.65625 0.226562 5.48438 0.617188 3.92188C1.39844 2.94531 2.86328 2.45703 5.01172 2.45703C7.16016 2.45703 8.625 2.16406 9.40625 1.57812C11.1641 2.75 12.6289 3.43359 13.8008 3.62891C15.168 3.82422 16.2422 3.92188 17.0234 3.92188C19.1719 3.92188 21.8086 3.43359 24.9336 2.45703C28.2539 1.48047 30.6953 1.38281 32.2578 2.16406C33.625 2.16406 34.8945 2.06641 36.0664 1.87109C37.2383 1.67578 38.5078 1.57812 39.875 1.57812C40.8516 1.77344 41.7305 2.06641 42.5117 2.45703C43.4883 2.65234 44.4648 2.75 45.4414 2.75C46.0273 2.75 46.5156 2.65234 46.9062 2.45703C47.4922 2.26172 48.0781 2.16406 48.6641 2.16406C51.9844 2.35937 55.5977 3.14063 59.5039 4.50781ZM17.6094 13.0039C16.6328 12.6133 15.6562 12.418 14.6797 12.418C13.8984 12.418 13.0195 12.418 12.043 12.418C12.043 14.3711 11.9453 16.2266 11.75 17.9844C11.5547 19.7422 11.6523 21.5977 12.043 23.5508C12.4336 25.1133 12.8242 26.6758 13.2148 28.2383C13.8008 29.8008 13.9961 31.4609 13.8008 33.2188C13.4102 34.7813 13.3125 35.7578 13.5078 36.1484C13.8984 36.3437 14.1914 36.6367 14.3867 37.0273C14.582 37.6133 14.582 38.2969 14.3867 39.0781C14.1914 39.6641 14.1914 40.25 14.3867 40.8359C14.582 41.8125 14.7773 42.5938 14.9727 43.1797C15.3633 43.7656 15.6562 44.4492 15.8516 45.2305C16.2422 46.207 16.3398 47.1836 16.1445 48.1602C16.1445 48.9414 16.2422 49.8203 16.4375 50.7969C16.4375 50.9922 16.5352 51.3828 16.7305 51.9688C17.1211 52.5547 17.4141 53.1406 17.6094 53.7266C17.8047 54.3125 17.9023 54.8008 17.9023 55.1914C18.0977 55.582 18 55.7773 17.6094 55.7773C18.3906 58.5117 18.8789 61.0508 19.0742 63.3945C19.4648 65.543 19.8555 67.6914 20.2461 69.8398C20.6367 71.4023 21.125 72.9648 21.7109 74.5273C22.2969 76.0898 22.7852 77.6523 23.1758 79.2148C23.1758 79.8008 23.0781 80.3867 22.8828 80.9727C22.8828 81.5586 22.9805 82.2422 23.1758 83.0234C24.543 88.6875 25.0312 93.2773 24.6406 96.793C24.25 100.309 24.0547 104.02 24.0547 107.926C24.0547 109.098 24.0547 110.367 24.0547 111.734C24.25 112.906 24.4453 114.078 24.6406 115.25C24.8359 116.227 25.0312 117.105 25.2266 117.887C25.6172 118.668 25.8125 119.547 25.8125 120.523C25.8125 121.305 25.7148 122.086 25.5195 122.867C25.3242 123.453 25.2266 124.137 25.2266 124.918C25.2266 127.652 25.5195 130.387 26.1055 133.121C26.6914 135.855 27.082 138.59 27.2773 141.324C27.4727 142.301 27.4727 143.375 27.2773 144.547C27.082 145.719 27.668 146.5 29.0352 146.891C29.2305 145.523 29.6211 143.375 30.207 140.445C30.9883 137.32 31.6719 134.195 32.2578 131.07C33.0391 127.945 33.625 125.016 34.0156 122.281C34.6016 119.547 34.7969 117.691 34.6016 116.715C35.5781 115.738 36.0664 114.566 36.0664 113.199C36.0664 111.832 36.0664 110.465 36.0664 109.098C36.2617 108.512 36.457 107.926 36.6523 107.34C37.043 106.559 37.2383 105.875 37.2383 105.289C36.8477 103.727 36.75 102.848 36.9453 102.652C37.1406 102.262 37.2383 101.871 37.2383 101.48C37.2383 100.895 37.1406 100.406 36.9453 100.016C36.75 99.4297 36.6523 98.8438 36.6523 98.2578C36.6523 97.6719 36.75 97.1836 36.9453 96.793C37.3359 96.207 37.6289 95.6211 37.8242 95.0352C38.0195 94.2539 38.0195 93.5703 37.8242 92.9844C37.6289 92.2031 37.6289 91.4219 37.8242 90.6406C38.0195 89.4688 38.2148 88.3945 38.4102 87.418C38.8008 86.2461 39.0938 85.0742 39.2891 83.9023C39.4844 82.7305 39.582 81.5586 39.582 80.3867C39.582 79.2148 39.6797 78.043 39.875 76.8711C40.0703 76.4805 40.3633 75.8945 40.7539 75.1133C41.1445 74.1367 41.0469 73.6484 40.4609 73.6484C41.0469 71.8906 41.4375 70.3281 41.6328 68.9609C42.0234 67.3984 42.4141 65.8359 42.8047 64.2734C43.7812 58.2188 44.1719 52.1641 43.9766 46.1094C43.7812 40.0547 43.8789 34 44.2695 27.9453C44.6602 25.2109 44.9531 22.6719 45.1484 20.3281C45.5391 17.7891 45.832 15.1523 46.0273 12.418C44.6602 12.8086 43.3906 12.6133 42.2188 11.832C41.2422 11.0508 40.168 10.5625 38.9961 10.3672C38.4102 10.1719 37.7266 10.2695 36.9453 10.6602C36.3594 10.8555 35.6758 10.9531 34.8945 10.9531C33.1367 10.9531 31.3789 10.8555 29.6211 10.6602C27.8633 10.4648 26.0078 10.5625 24.0547 10.9531C22.8828 11.1484 21.8086 11.5391 20.832 12.125C19.8555 12.5156 18.7812 12.8086 17.6094 13.0039ZM31.0859 170.914C33.625 172.477 35.0898 173.16 35.4805 172.965C35.8711 172.77 36.457 173.062 37.2383 173.844C39.1914 175.992 40.6562 177.555 41.6328 178.531C42.6094 179.312 43.293 180.484 43.6836 182.047C44.4648 183.609 45.0508 184.781 45.4414 185.562C46.0273 186.148 46.418 186.93 46.6133 187.906C46.2227 190.641 46.2227 192.496 46.6133 193.473C47.1992 194.254 47.2969 195.328 46.9062 196.695C45.5391 198.844 44.8555 200.309 44.8555 201.09C44.8555 201.676 44.6602 202.164 44.2695 202.555C43.8789 202.945 43.0977 203.629 41.9258 204.605C40.7539 205.387 39.4844 206.266 38.1172 207.242C36.75 208.219 35.3828 209.098 34.0156 209.879C32.6484 210.66 31.6719 211.148 31.0859 211.344C31.0859 211.148 30.5977 210.953 29.6211 210.758C28.6445 210.562 27.8633 210.27 27.2773 209.879C25.5195 210.074 24.543 210.074 24.3477 209.879C24.1523 209.684 23.8594 209.488 23.4688 209.293C21.3203 209.098 20.0508 208.902 19.6602 208.707C19.4648 208.512 19.1719 208.316 18.7812 208.121C17.8047 207.73 16.7305 207.633 15.5586 207.828C14.582 207.828 13.9961 207.242 13.8008 206.07C9.89453 202.164 7.64844 198.941 7.0625 196.402C6.67188 193.668 7.64844 190.348 9.99219 186.441V181.461C11.3594 180.289 12.4336 179.508 13.2148 179.117C14.1914 178.531 15.4609 178.043 17.0234 177.652C19.5625 177.262 21.418 176.383 22.5898 175.016C23.7617 173.648 25.3242 173.062 27.2773 173.258C28.8398 171.695 29.9141 171.207 30.5 171.793C31.0859 172.379 31.2812 172.086 31.0859 170.914ZM33.4297 183.512C31.2812 181.949 29.5234 181.461 28.1562 182.047C26.7891 182.438 25.5195 183.023 24.3477 183.805C23.1758 184.586 22.1016 185.367 21.125 186.148C20.3438 186.93 19.6602 187.125 19.0742 186.734C18.8789 188.492 18.6836 190.25 18.4883 192.008C18.293 193.766 18 195.523 17.6094 197.281C19.1719 198.258 20.832 198.551 22.5898 198.16C23.3711 199.527 24.543 200.406 26.1055 200.797C27.668 200.992 29.2305 200.895 30.793 200.504C32.3555 200.113 33.8203 199.43 35.1875 198.453C36.5547 197.477 37.4336 196.305 37.8242 194.938C37.4336 193.18 37.1406 191.129 36.9453 188.785C36.75 186.246 35.5781 184.488 33.4297 183.512Z" fill="white" fill-opacity="0.2"/>
</svg>
