<svg width="124" height="214" viewBox="0 0 124 214" fill="none" xmlns="http://www.w3.org/2000/svg">
<path d="M54.3008 176.723L61.332 178.188C62.3086 179.164 63.3828 180.141 64.5547 181.117C65.7266 182.094 66.9961 182.973 68.3633 183.754C68.7539 185.121 69.1445 186.293 69.5352 187.27C69.9258 188.246 70.1211 189.516 70.1211 191.078C70.1211 192.25 70.2188 193.715 70.4141 195.473C70.6094 197.035 70.6094 198.402 70.4141 199.574C70.2188 200.746 69.7305 201.82 68.9492 202.797C68.3633 203.773 68.2656 204.945 68.6562 206.312C67.0938 206.508 65.9219 206.996 65.1406 207.777C64.3594 208.363 63.4805 208.852 62.5039 209.242C61.5273 209.633 60.5508 209.828 59.5742 209.828C58.793 209.828 57.9141 209.926 56.9375 210.121C54.9844 210.512 52.8359 211.098 50.4922 211.879C48.3438 212.855 46.4883 212.367 44.9258 210.414C43.9492 210.219 43.0703 210.023 42.2891 209.828C41.7031 209.438 40.9219 209.145 39.9453 208.949C38.9688 207.973 38.0898 206.996 37.3086 206.02C36.7227 204.848 35.8438 203.969 34.6719 203.383C34.6719 201.234 34.4766 199.086 34.0859 196.938C33.6953 194.594 33.6953 192.348 34.0859 190.199C34.2812 189.223 34.6719 188.344 35.2578 187.562C35.8438 186.781 35.9414 185.902 35.5508 184.926C36.5273 184.535 37.3086 183.852 37.8945 182.875C38.6758 181.898 39.5547 181.117 40.5312 180.531C41.3125 180.141 42.1914 179.945 43.168 179.945C44.3398 179.75 45.1211 179.164 45.5117 178.188C46.4883 178.383 47.3672 178.383 48.1484 178.188C49.125 177.797 50.1016 177.602 51.0781 177.602C51.6641 177.406 52.0547 177.211 52.25 177.016C52.6406 176.625 53.3242 176.527 54.3008 176.723ZM59.5742 192.836C59.3789 192.445 58.5977 191.664 57.2305 190.492C56.0586 189.125 55.2773 188.344 54.8867 188.148C53.3242 187.562 51.957 187.465 50.7852 187.855C49.6133 188.051 48.4414 188.051 47.2695 187.855C45.9023 189.223 45.3164 190.102 45.5117 190.492C45.707 190.688 45.707 190.883 45.5117 191.078C44.3398 192.836 43.7539 194.594 43.7539 196.352C43.7539 198.109 44.0469 199.477 44.6328 200.453C46.3906 200.062 48.1484 200.258 49.9062 201.039C51.6641 201.625 53.3242 201.918 54.8867 201.918C58.5977 199.77 60.1602 196.742 59.5742 192.836ZM123.148 53.0898C122.758 54.6523 122.562 56.4102 122.562 58.3633C122.758 60.1211 123.051 61.7812 123.441 63.3438C122.465 63.7344 121.977 64.5156 121.977 65.6875C121.977 66.6641 121.879 67.543 121.684 68.3242C120.512 71.6445 119.633 73.8906 119.047 75.0625C118.656 76.2344 118.461 77.6016 118.461 79.1641C117.484 78.9688 116.996 79.3594 116.996 80.3359C117.191 81.3125 116.703 81.6055 115.531 81.2148C115.727 81.9961 115.531 82.4844 114.945 82.6797C114.359 82.875 114.164 83.4609 114.359 84.4375C113.773 84.4375 112.992 84.9258 112.016 85.9023C111.039 86.6836 109.965 87.6602 108.793 88.832C107.621 90.0039 106.449 91.1758 105.277 92.3477C104.301 93.3242 103.422 94.0078 102.641 94.3984C101.664 95.5703 100.59 96.4492 99.418 97.0352C98.4414 97.4258 97.4648 98.1094 96.4883 99.0859C95.1211 100.453 93.7539 101.43 92.3867 102.016C91.2148 102.602 90.7266 103.383 90.9219 104.359C88.1875 105.336 85.5508 106.508 83.0117 107.875C80.668 109.047 78.1289 110.023 75.3945 110.805C73.832 112.367 71.7812 113.734 69.2422 114.906C66.8984 115.883 65.1406 117.152 63.9688 118.715C63.5781 119.105 63.0898 119.496 62.5039 119.887C62.1133 120.082 61.7227 120.375 61.332 120.766C60.5508 122.523 59.9648 123.402 59.5742 123.402C59.3789 123.402 59.1836 123.598 58.9883 123.988C58.5977 124.379 58.4023 125.062 58.4023 126.039C58.5977 126.82 58.207 127.406 57.2305 127.797C57.6211 128.383 57.4258 128.969 56.6445 129.555C56.0586 130.141 56.1562 130.629 56.9375 131.02C56.7422 131.605 56.3516 132.094 55.7656 132.484C55.375 132.68 55.082 133.07 54.8867 133.656C54.3008 135.219 54.0078 136.977 54.0078 138.93C54.0078 140.883 54.1055 142.641 54.3008 144.203C54.3008 146.547 54.5938 148.793 55.1797 150.941C55.7656 152.895 56.2539 154.945 56.6445 157.094C55.8633 157.875 55.4727 158.559 55.4727 159.145C55.668 159.73 55.1797 160.316 54.0078 160.902C52.6406 162.074 51.7617 162.562 51.3711 162.367C50.9805 161.977 50.5898 161.781 50.1992 161.781C48.4414 161.391 47.5625 161.098 47.5625 160.902C47.5625 160.512 47.4648 160.219 47.2695 160.023C46.293 159.047 45.6094 158.168 45.2188 157.387C45.0234 156.605 44.7305 155.434 44.3398 153.871L43.7539 150.648C43.5586 149.086 43.3633 147.426 43.168 145.668C42.9727 143.91 42.9727 142.25 43.168 140.688V137.465C43.168 135.316 43.4609 133.363 44.0469 131.605C44.0469 131.215 44.2422 130.727 44.6328 130.141C45.0234 129.359 45.0234 128.773 44.6328 128.383C45.4141 127.992 45.9023 127.406 46.0977 126.625C46.4883 125.844 46.9766 125.16 47.5625 124.574C47.3672 124.184 47.3672 123.598 47.5625 122.816C47.7578 121.84 47.5625 121.352 46.9766 121.352C47.5625 120.57 48.2461 119.984 49.0273 119.594C49.8086 119.008 50.4922 118.324 51.0781 117.543C52.8359 115.395 54.1055 113.832 54.8867 112.855C55.8633 111.879 56.8398 111.391 57.8164 111.391C58.793 109.047 60.4531 107.484 62.7969 106.703C65.3359 105.922 67.3867 104.457 68.9492 102.309C70.5117 102.699 71.6836 102.602 72.4648 102.016C73.4414 101.43 74.5156 100.941 75.6875 100.551C79.7891 98.793 83.4023 96.8398 86.5273 94.6914C89.8477 92.3477 92.9727 89.418 95.9023 85.9023C98.832 84.9258 101.176 83.3633 102.934 81.2148C104.691 78.8711 106.449 76.625 108.207 74.4766C108.207 73.8906 108.402 73.207 108.793 72.4258C109.184 71.6445 109.086 71.0586 108.5 70.668C109.086 70.2773 109.379 69.6914 109.379 68.9102C109.574 68.1289 109.867 67.4453 110.258 66.8594C111.234 64.125 112.113 61.4883 112.895 58.9492C113.676 56.4102 113.09 53.7734 111.137 51.0391C111.527 50.4531 111.625 49.8672 111.43 49.2812C111.43 48.6953 111.43 48.207 111.43 47.8164C111.039 46.2539 110.551 44.4961 109.965 42.543C109.574 40.3945 108.695 38.832 107.328 37.8555C106.547 37.0742 105.863 36.293 105.277 35.5117C104.691 34.7305 104.008 33.9492 103.227 33.168C102.055 32.1914 100.785 31.5078 99.418 31.1172C98.0508 30.7266 96.7812 30.043 95.6094 29.0664C93.8516 29.457 92.1914 29.3594 90.6289 28.7734C89.0664 27.9922 87.5039 27.4063 85.9414 27.0156C83.4023 26.625 81.5469 26.5273 80.375 26.7227C79.3984 26.7227 78.5195 26.2344 77.7383 25.2578C76.1758 25.8438 74.6133 26.1367 73.0508 26.1367C71.4883 26.1367 69.9258 26.2344 68.3633 26.4297C67.3867 26.625 66.4102 26.918 65.4336 27.3086C64.6523 27.6992 63.7734 27.8945 62.7969 27.8945C62.2109 28.0898 61.625 28.0898 61.0391 27.8945C60.4531 27.6992 59.7695 27.6992 58.9883 27.8945C58.207 28.0898 57.5234 28.3828 56.9375 28.7734C56.3516 28.9687 55.5703 29.1641 54.5938 29.3594C49.125 30.1406 43.8516 31.7031 38.7734 34.0469C33.8906 36.1953 29.7891 38.4414 26.4688 40.7852C26.4688 42.1523 25.9805 43.3242 25.0039 44.3008C24.0273 45.2773 22.9531 45.9609 21.7812 46.3516C20.6094 46.5469 19.3398 46.3516 17.9727 45.7656C16.8008 44.9844 15.9219 43.6172 15.3359 41.6641C14.3594 41.2734 13.3828 40.7852 12.4062 40.1992C11.4297 39.6133 10.7461 38.7344 10.3555 37.5625C8.98828 36 7.62109 34.8281 6.25391 34.0469C5.08203 33.2656 4.00781 31.8984 3.03125 29.9453C2.25 29.3594 1.66406 28.7734 1.27344 28.1875C1.07812 27.4063 0.785156 26.5273 0.394531 25.5508C1.37109 23.9883 2.54297 22.5234 3.91016 21.1562C5.47266 19.7891 7.03516 18.5195 8.59766 17.3477C9.18359 16.957 9.76953 16.6641 10.3555 16.4688C10.9414 16.0781 11.2344 15.4922 11.2344 14.7109C12.6016 14.5156 14.2617 13.7344 16.2148 12.3672C18.3633 11 20.2188 10.0234 21.7812 9.4375C24.5156 8.65625 26.6641 7.77734 28.2266 6.80078C29.7891 5.62891 31.5469 5.14063 33.5 5.33594C34.4766 4.16406 35.7461 3.57812 37.3086 3.57812C38.8711 3.57812 40.3359 3.48047 41.7031 3.28516C43.0703 3.08984 44.3398 2.89453 45.5117 2.69922C46.8789 2.30859 48.2461 2.01562 49.6133 1.82031C52.3477 2.21094 54.2031 2.21094 55.1797 1.82031C56.1562 1.42969 57.1328 1.23438 58.1094 1.23438C60.2578 1.42969 61.4297 1.42969 61.625 1.23438C61.8203 0.84375 62.1133 0.648438 62.5039 0.648438C63.2852 0.648438 64.8477 0.746094 67.1914 0.941406C69.5352 0.941406 71.0977 1.03906 71.8789 1.23438C72.4648 1.23438 72.9531 1.42969 73.3438 1.82031C73.9297 2.01562 74.5156 2.21094 75.1016 2.40625C77.4453 2.40625 78.9102 2.60156 79.4961 2.99219C80.082 3.38281 80.668 3.67578 81.2539 3.87109C83.793 4.65234 86.332 5.23828 88.8711 5.62891C91.6055 6.01953 94.0469 6.80078 96.1953 7.97266C98.1484 9.73047 99.418 10.707 100.004 10.9023C100.59 11.0977 101.078 11.3906 101.469 11.7812C102.836 12.5625 103.52 13.0508 103.52 13.2461C103.52 13.4414 103.715 13.6367 104.105 13.832C104.496 14.2227 104.984 14.5156 105.57 14.7109C106.156 14.7109 106.645 14.9062 107.035 15.2969C107.426 15.6875 107.816 16.3711 108.207 17.3477C108.598 18.3242 109.086 19.1055 109.672 19.6914C110.844 20.8633 111.723 22.2305 112.309 23.793C113.09 25.1602 113.969 26.5273 114.945 27.8945C114.945 28.0898 115.141 28.6758 115.531 29.6523C115.922 30.6289 116.312 31.8008 116.703 33.168C117.289 34.3398 117.777 35.4141 118.168 36.3906C118.754 37.3672 119.145 37.9531 119.34 38.1484C119.34 39.5156 119.535 40.9805 119.926 42.543C120.316 44.1055 120.902 45.375 121.684 46.3516C122.074 47.5234 122.172 48.6953 121.977 49.8672C121.781 51.0391 122.172 52.1133 123.148 53.0898ZM36.1367 25.8438C37.1133 24.6719 38.2852 23.9883 39.6523 23.793C41.2148 23.5977 42.6797 23.3047 44.0469 22.9141C45.4141 22.5234 46.6836 22.1328 47.8555 21.7422C49.0273 21.1562 50.2969 20.7656 51.6641 20.5703C54.5938 20.375 56.4492 20.082 57.2305 19.6914C58.0117 19.1055 58.8906 18.7148 59.8672 18.5195C62.2109 18.5195 63.3828 18.4219 63.3828 18.2266C63.5781 17.8359 63.8711 17.6406 64.2617 17.6406C65.2383 17.4453 66.8008 17.25 68.9492 17.0547C71.293 16.8594 72.8555 16.7617 73.6367 16.7617C74.2227 16.957 74.7109 17.1523 75.1016 17.3477C75.6875 17.543 76.2734 17.6406 76.8594 17.6406C79.3984 17.4453 80.9609 17.543 81.5469 17.9336C82.1328 18.1289 82.8164 18.2266 83.5977 18.2266C85.9414 18.6172 88.2852 18.9102 90.6289 19.1055C92.9727 19.1055 95.3164 19.4961 97.6602 20.2773C96.6836 19.4961 95.707 18.9102 94.7305 18.5195C93.7539 17.9336 92.875 17.1523 92.0938 16.1758C90.3359 16.3711 88.6758 15.9805 87.1133 15.0039C85.7461 14.0273 84.2812 13.3438 82.7188 12.9531C80.1797 12.3672 78.3242 11.9766 77.1523 11.7812C76.1758 11.5859 75.3945 11 74.8086 10.0234C73.2461 10.4141 71.6836 10.5117 70.1211 10.3164C68.5586 10.1211 66.9961 10.0234 65.4336 10.0234C64.457 10.0234 63.4805 10.2187 62.5039 10.6094C61.5273 10.8047 60.5508 10.9023 59.5742 10.9023C58.9883 10.9023 58.4023 10.8047 57.8164 10.6094C57.2305 10.2187 56.6445 10.0234 56.0586 10.0234C55.082 10.2187 54.2031 10.4141 53.4219 10.6094C52.8359 10.8047 52.1523 10.9023 51.3711 10.9023C48.0508 10.9023 45.4141 11.0977 43.4609 11.4883C41.5078 11.6836 39.6523 12.0742 37.8945 12.6602C35.1602 13.4414 32.5234 14.3203 29.9844 15.2969C27.4453 16.2734 25.1016 17.4453 22.9531 18.8125C21.5859 19.5937 20.2188 20.375 18.8516 21.1562C17.4844 21.7422 16.3125 22.6211 15.3359 23.793L11.8203 25.5508C11.8203 26.918 12.1133 27.7969 12.6992 28.1875C13.4805 28.5781 14.1641 29.0664 14.75 29.6523C15.7266 30.6289 16.6055 31.6055 17.3867 32.582C18.168 33.3633 19.0469 34.2422 20.0234 35.2188C20.6094 34.6328 21.7812 33.8516 23.5391 32.875C25.2969 31.7031 26.1758 30.7266 26.1758 29.9453C28.3242 29.75 29.9844 29.0664 31.1562 27.8945C32.5234 26.7227 34.1836 26.0391 36.1367 25.8438Z" fill="white" fill-opacity="0.2"/>
</svg>
