<svg width="52" height="176" viewBox="0 0 52 176" fill="none" xmlns="http://www.w3.org/2000/svg">
<path d="M50.4199 3.58984C50.5827 3.91536 50.7454 4.40365 50.9082 5.05469C51.071 5.54297 51.071 6.11263 50.9082 6.76367C50.4199 7.90299 50.2572 8.55404 50.4199 8.7168C50.5827 8.87956 50.5827 9.1237 50.4199 9.44922C48.7923 10.7513 47.8971 12.1348 47.7344 13.5996C47.5716 14.9017 47.1647 16.2038 46.5137 17.5059C47.002 19.7845 46.9206 22.1445 46.2695 24.5859C45.7812 27.0273 45.3743 29.3874 45.0488 31.666C45.3743 32.8053 45.8626 33.7005 46.5137 34.3516C45.6999 35.6536 45.3743 37.0371 45.5371 38.502C45.6999 39.9668 45.6999 41.3503 45.5371 42.6523C45.3743 43.3034 45.1302 44.0358 44.8047 44.8496C44.6419 45.6634 44.8861 46.3958 45.5371 47.0469C45.3743 47.8607 45.1302 49.3255 44.8047 51.4414C44.6419 53.3945 44.3164 55.5104 43.8281 57.7891C43.5026 60.0677 43.1771 62.1836 42.8516 64.1367C42.526 66.0898 42.2005 67.2292 41.875 67.5547C42.3633 68.8568 42.3633 70.1589 41.875 71.4609C41.5495 72.763 41.224 74.0651 40.8984 75.3672C40.5729 76.832 40.4915 77.8086 40.6543 78.2969C40.9798 78.7852 41.0612 79.1921 40.8984 79.5176C40.0846 81.1452 39.7591 82.3659 39.9219 83.1797C40.0846 83.9935 39.8405 84.7259 39.1895 85.377C40.0033 87.1673 40.0846 88.8763 39.4336 90.5039C38.7826 91.9688 38.8639 93.1081 39.6777 93.9219C39.8405 94.5729 39.6777 95.0612 39.1895 95.3867C38.7012 95.7122 38.3757 96.1191 38.2129 96.6074C38.0501 97.2585 38.0501 97.8281 38.2129 98.3164C38.3757 98.8047 38.3757 99.293 38.2129 99.7812C38.0501 100.27 37.806 100.676 37.4805 101.002C37.1549 101.327 36.9108 101.734 36.748 102.223C36.5853 103.036 36.5853 104.013 36.748 105.152C36.9108 106.129 37.0736 107.105 37.2363 108.082C36.5853 108.896 36.1784 109.954 36.0156 111.256C36.0156 112.395 35.8529 113.453 35.5273 114.43C34.7135 116.22 34.388 117.441 34.5508 118.092C34.7135 118.58 34.7135 119.15 34.5508 119.801C34.388 120.452 34.1439 121.021 33.8184 121.51C33.4928 121.998 33.3301 122.486 33.3301 122.975C33.4928 123.951 33.4115 124.602 33.0859 124.928C32.9232 125.253 32.8418 125.579 32.8418 125.904C32.5163 126.881 32.2721 127.776 32.1094 128.59C32.1094 129.404 31.8652 130.299 31.377 131.275C28.9355 131.764 26.4941 132.415 24.0527 133.229C21.7741 133.88 19.3327 133.798 16.7285 132.984C16.5658 132.171 16.1589 131.601 15.5078 131.275C15.0195 130.787 14.3685 130.299 13.5547 129.811C14.5312 128.346 14.8568 127.532 14.5312 127.369C14.3685 127.044 14.2057 126.637 14.043 126.148V118.092C14.043 117.604 14.1243 117.197 14.2871 116.871C14.4499 116.383 14.5312 115.895 14.5312 115.406C14.5312 114.592 14.3685 113.941 14.043 113.453C13.8802 112.802 13.7174 112.07 13.5547 111.256C13.8802 109.14 13.8802 107.838 13.5547 107.35C13.3919 106.699 13.3105 106.048 13.3105 105.396C13.3105 104.42 13.3105 103.443 13.3105 102.467C13.4733 101.49 13.4733 100.514 13.3105 99.5371C13.1478 98.7233 12.9036 97.9909 12.5781 97.3398C12.4154 96.6888 12.334 96.0378 12.334 95.3867C12.1712 94.4102 12.1712 93.515 12.334 92.7012C12.4967 91.7246 12.6595 90.748 12.8223 89.7715C12.8223 87.9811 12.8223 86.2721 12.8223 84.6445C12.985 83.0169 12.985 81.3079 12.8223 79.5176C12.6595 78.8665 12.6595 78.1341 12.8223 77.3203C12.985 76.5065 12.6595 76.0182 11.8457 75.8555C12.1712 74.3906 12.2526 72.8444 12.0898 71.2168C12.0898 69.4264 11.5202 67.8802 10.3809 66.5781C10.7064 65.1133 10.625 63.5671 10.1367 61.9395C9.64844 60.3118 8.9974 58.847 8.18359 57.5449C8.50911 56.8939 8.50911 56.2428 8.18359 55.5918C8.02083 54.9408 7.85807 54.2083 7.69531 53.3945C7.53255 52.0924 7.36979 50.7904 7.20703 49.4883C7.20703 48.0234 7.04427 46.64 6.71875 45.3379C6.39323 44.0358 6.06771 42.7337 5.74219 41.4316C5.57943 39.9668 5.33529 38.502 5.00977 37.0371C4.35872 33.6191 3.87044 30.2012 3.54492 26.7832C3.38216 23.2025 3.30078 19.7031 3.30078 16.2852C3.6263 14.6576 3.38216 13.1927 2.56836 11.8906C1.91732 10.4258 1.9987 9.28646 2.8125 8.47266C2.32422 7.33333 1.83594 6.51953 1.34766 6.03125C1.02214 5.38021 1.02214 4.40365 1.34766 3.10156C1.9987 2.28776 3.2194 1.88086 5.00977 1.88086C6.80013 1.88086 8.02083 1.63672 8.67188 1.14844C10.1367 2.125 11.3574 2.69466 12.334 2.85742C13.4733 3.02018 14.3685 3.10156 15.0195 3.10156C16.8099 3.10156 19.0072 2.69466 21.6113 1.88086C24.3783 1.06706 26.4128 0.985677 27.7148 1.63672C28.8542 1.63672 29.9121 1.55534 30.8887 1.39258C31.8652 1.22982 32.9232 1.14844 34.0625 1.14844C34.8763 1.3112 35.6087 1.55534 36.2598 1.88086C37.0736 2.04362 37.8874 2.125 38.7012 2.125C39.1895 2.125 39.5964 2.04362 39.9219 1.88086C40.4102 1.7181 40.8984 1.63672 41.3867 1.63672C44.1536 1.79948 47.1647 2.45052 50.4199 3.58984ZM15.5078 10.6699C14.694 10.3444 13.8802 10.1816 13.0664 10.1816C12.4154 10.1816 11.6829 10.1816 10.8691 10.1816C10.8691 11.8092 10.7878 13.3555 10.625 14.8203C10.4622 16.2852 10.5436 17.8314 10.8691 19.459C11.1947 20.7611 11.5202 22.0632 11.8457 23.3652C12.334 24.6673 12.4967 26.0508 12.334 27.5156C12.0085 28.8177 11.9271 29.6315 12.0898 29.957C12.4154 30.1198 12.6595 30.3639 12.8223 30.6895C12.985 31.1777 12.985 31.7474 12.8223 32.3984C12.6595 32.8867 12.6595 33.375 12.8223 33.8633C12.985 34.6771 13.1478 35.3281 13.3105 35.8164C13.6361 36.3047 13.8802 36.8743 14.043 37.5254C14.3685 38.3392 14.4499 39.153 14.2871 39.9668C14.2871 40.6178 14.3685 41.3503 14.5312 42.1641C14.5312 42.3268 14.6126 42.6523 14.7754 43.1406C15.1009 43.6289 15.3451 44.1172 15.5078 44.6055C15.6706 45.0938 15.752 45.5007 15.752 45.8262C15.9147 46.1517 15.8333 46.3145 15.5078 46.3145C16.1589 48.5931 16.5658 50.709 16.7285 52.6621C17.054 54.4525 17.3796 56.2428 17.7051 58.0332C18.0306 59.3353 18.4375 60.6374 18.9258 61.9395C19.4141 63.2415 19.821 64.5436 20.1465 65.8457C20.1465 66.334 20.0651 66.8223 19.9023 67.3105C19.9023 67.7988 19.9837 68.3685 20.1465 69.0195C21.2858 73.7396 21.6927 77.5645 21.3672 80.4941C21.0417 83.4238 20.8789 86.5163 20.8789 89.7715C20.8789 90.748 20.8789 91.806 20.8789 92.9453C21.0417 93.9219 21.2044 94.8984 21.3672 95.875C21.5299 96.6888 21.6927 97.4212 21.8555 98.0723C22.181 98.7233 22.3438 99.4557 22.3438 100.27C22.3438 100.921 22.2624 101.572 22.0996 102.223C21.9368 102.711 21.8555 103.281 21.8555 103.932C21.8555 106.21 22.0996 108.489 22.5879 110.768C23.0762 113.046 23.4017 115.325 23.5645 117.604C23.7272 118.417 23.7272 119.312 23.5645 120.289C23.4017 121.266 23.89 121.917 25.0293 122.242C25.1921 121.103 25.5176 119.312 26.0059 116.871C26.6569 114.267 27.2266 111.663 27.7148 109.059C28.3659 106.454 28.8542 104.013 29.1797 101.734C29.668 99.4557 29.8307 97.9095 29.668 97.0957C30.4818 96.2819 30.8887 95.3053 30.8887 94.166C30.8887 93.0267 30.8887 91.8874 30.8887 90.748C31.0514 90.2598 31.2142 89.7715 31.377 89.2832C31.7025 88.6322 31.8652 88.0625 31.8652 87.5742C31.5397 86.2721 31.4583 85.5397 31.6211 85.377C31.7839 85.0514 31.8652 84.7259 31.8652 84.4004C31.8652 83.9121 31.7839 83.5052 31.6211 83.1797C31.4583 82.6914 31.377 82.2031 31.377 81.7148C31.377 81.2266 31.4583 80.8197 31.6211 80.4941C31.9466 80.0059 32.1908 79.5176 32.3535 79.0293C32.5163 78.3783 32.5163 77.8086 32.3535 77.3203C32.1908 76.6693 32.1908 76.0182 32.3535 75.3672C32.5163 74.3906 32.679 73.4954 32.8418 72.6816C33.1673 71.7051 33.4115 70.7285 33.5742 69.752C33.737 68.7754 33.8184 67.7988 33.8184 66.8223C33.8184 65.8457 33.8997 64.8691 34.0625 63.8926C34.2253 63.5671 34.4694 63.0788 34.7949 62.4277C35.1204 61.6139 35.0391 61.207 34.5508 61.207C35.0391 59.7422 35.3646 58.4401 35.5273 57.3008C35.8529 55.9987 36.1784 54.6966 36.5039 53.3945C37.3177 48.349 37.6432 43.3034 37.4805 38.2578C37.3177 33.2122 37.3991 28.1667 37.7246 23.1211C38.0501 20.8424 38.2943 18.7266 38.457 16.7734C38.7826 14.6576 39.0267 12.4603 39.1895 10.1816C38.0501 10.5072 36.9922 10.3444 36.0156 9.69336C35.2018 9.04232 34.3066 8.63542 33.3301 8.47266C32.8418 8.3099 32.2721 8.39128 31.6211 8.7168C31.1328 8.87956 30.5632 8.96094 29.9121 8.96094C28.4473 8.96094 26.9824 8.87956 25.5176 8.7168C24.0527 8.55404 22.5065 8.63542 20.8789 8.96094C19.9023 9.1237 19.0072 9.44922 18.1934 9.9375C17.3796 10.263 16.4844 10.5072 15.5078 10.6699ZM26.7383 142.262C28.8542 143.564 30.0749 144.133 30.4004 143.971C30.7259 143.808 31.2142 144.052 31.8652 144.703C33.4928 146.493 34.7135 147.796 35.5273 148.609C36.3411 149.26 36.9108 150.237 37.2363 151.539C37.8874 152.841 38.3757 153.818 38.7012 154.469C39.1895 154.957 39.515 155.608 39.6777 156.422C39.3522 158.701 39.3522 160.247 39.6777 161.061C40.166 161.712 40.2474 162.607 39.9219 163.746C38.7826 165.536 38.2129 166.757 38.2129 167.408C38.2129 167.896 38.0501 168.303 37.7246 168.629C37.3991 168.954 36.748 169.524 35.7715 170.338C34.7949 170.989 33.737 171.721 32.5977 172.535C31.4583 173.349 30.319 174.081 29.1797 174.732C28.0404 175.383 27.2266 175.79 26.7383 175.953C26.7383 175.79 26.3314 175.628 25.5176 175.465C24.7038 175.302 24.0527 175.058 23.5645 174.732C22.0996 174.895 21.2858 174.895 21.123 174.732C20.9603 174.57 20.7161 174.407 20.3906 174.244C18.6003 174.081 17.5423 173.919 17.2168 173.756C17.054 173.593 16.8099 173.43 16.4844 173.268C15.6706 172.942 14.7754 172.861 13.7988 173.023C12.985 173.023 12.4967 172.535 12.334 171.559C9.07878 168.303 7.20703 165.618 6.71875 163.502C6.39323 161.223 7.20703 158.456 9.16016 155.201V151.051C10.2995 150.074 11.1947 149.423 11.8457 149.098C12.6595 148.609 13.7174 148.202 15.0195 147.877C17.1354 147.551 18.6816 146.819 19.6582 145.68C20.6348 144.54 21.9368 144.052 23.5645 144.215C24.8665 142.913 25.7617 142.506 26.25 142.994C26.7383 143.482 26.901 143.238 26.7383 142.262ZM28.6914 152.76C26.901 151.458 25.4362 151.051 24.2969 151.539C23.1576 151.865 22.0996 152.353 21.123 153.004C20.1465 153.655 19.2513 154.306 18.4375 154.957C17.7865 155.608 17.2168 155.771 16.7285 155.445C16.5658 156.91 16.403 158.375 16.2402 159.84C16.0775 161.305 15.8333 162.77 15.5078 164.234C16.8099 165.048 18.1934 165.292 19.6582 164.967C20.3092 166.106 21.2858 166.839 22.5879 167.164C23.89 167.327 25.1921 167.245 26.4941 166.92C27.7962 166.594 29.0169 166.025 30.1562 165.211C31.2956 164.397 32.028 163.421 32.3535 162.281C32.028 160.816 31.7839 159.107 31.6211 157.154C31.4583 155.038 30.4818 153.574 28.6914 152.76Z" fill="white" fill-opacity="0.2"/>
</svg>
