<svg width="62" height="108" viewBox="0 0 62 108" fill="none" xmlns="http://www.w3.org/2000/svg">
<path d="M27.1504 88.8613L30.666 89.5938C31.1543 90.082 31.6914 90.5703 32.2773 91.0586C32.8633 91.5469 33.498 91.9863 34.1816 92.377C34.377 93.0605 34.5723 93.6465 34.7676 94.1348C34.9629 94.623 35.0605 95.2578 35.0605 96.0391C35.0605 96.625 35.1094 97.3574 35.207 98.2363C35.3047 99.0176 35.3047 99.7012 35.207 100.287C35.1094 100.873 34.8652 101.41 34.4746 101.898C34.1816 102.387 34.1328 102.973 34.3281 103.656C33.5469 103.754 32.9609 103.998 32.5703 104.389C32.1797 104.682 31.7402 104.926 31.252 105.121C30.7637 105.316 30.2754 105.414 29.7871 105.414C29.3965 105.414 28.957 105.463 28.4688 105.561C27.4922 105.756 26.418 106.049 25.2461 106.439C24.1719 106.928 23.2441 106.684 22.4629 105.707C21.9746 105.609 21.5352 105.512 21.1445 105.414C20.8516 105.219 20.4609 105.072 19.9727 104.975C19.4844 104.486 19.0449 103.998 18.6543 103.51C18.3613 102.924 17.9219 102.484 17.3359 102.191C17.3359 101.117 17.2383 100.043 17.043 98.9688C16.8477 97.7969 16.8477 96.6738 17.043 95.5996C17.1406 95.1113 17.3359 94.6719 17.6289 94.2812C17.9219 93.8906 17.9707 93.4512 17.7754 92.9629C18.2637 92.7676 18.6543 92.4258 18.9473 91.9375C19.3379 91.4492 19.7773 91.0586 20.2656 90.7656C20.6562 90.5703 21.0957 90.4727 21.584 90.4727C22.1699 90.375 22.5605 90.082 22.7559 89.5938C23.2441 89.6914 23.6836 89.6914 24.0742 89.5938C24.5625 89.3984 25.0508 89.3008 25.5391 89.3008C25.832 89.2031 26.0273 89.1055 26.125 89.0078C26.3203 88.8125 26.6621 88.7637 27.1504 88.8613ZM29.7871 96.918C29.6895 96.7227 29.2988 96.332 28.6152 95.7461C28.0293 95.0625 27.6387 94.6719 27.4434 94.5742C26.6621 94.2812 25.9785 94.2324 25.3926 94.4277C24.8066 94.5254 24.2207 94.5254 23.6348 94.4277C22.9512 95.1113 22.6582 95.5508 22.7559 95.7461C22.8535 95.8438 22.8535 95.9414 22.7559 96.0391C22.1699 96.918 21.877 97.7969 21.877 98.6758C21.877 99.5547 22.0234 100.238 22.3164 100.727C23.1953 100.531 24.0742 100.629 24.9531 101.02C25.832 101.312 26.6621 101.459 27.4434 101.459C29.2988 100.385 30.0801 98.8711 29.7871 96.918ZM61.5742 27.0449C61.3789 27.8262 61.2812 28.7051 61.2812 29.6816C61.3789 30.5605 61.5254 31.3906 61.7207 32.1719C61.2324 32.3672 60.9883 32.7578 60.9883 33.3438C60.9883 33.832 60.9395 34.2715 60.8418 34.6621C60.2559 36.3223 59.8164 37.4453 59.5234 38.0312C59.3281 38.6172 59.2305 39.3008 59.2305 40.082C58.7422 39.9844 58.498 40.1797 58.498 40.668C58.5957 41.1562 58.3516 41.3027 57.7656 41.1074C57.8633 41.498 57.7656 41.7422 57.4727 41.8398C57.1797 41.9375 57.082 42.2305 57.1797 42.7188C56.8867 42.7188 56.4961 42.9629 56.0078 43.4512C55.5195 43.8418 54.9824 44.3301 54.3965 44.916C53.8105 45.502 53.2246 46.0879 52.6387 46.6738C52.1504 47.1621 51.7109 47.5039 51.3203 47.6992C50.832 48.2852 50.2949 48.7246 49.709 49.0176C49.2207 49.2129 48.7324 49.5547 48.2441 50.043C47.5605 50.7266 46.877 51.2148 46.1934 51.5078C45.6074 51.8008 45.3633 52.1914 45.4609 52.6797C44.0938 53.168 42.7754 53.7539 41.5059 54.4375C40.334 55.0234 39.0645 55.5117 37.6973 55.9023C36.916 56.6836 35.8906 57.3672 34.6211 57.9531C33.4492 58.4414 32.5703 59.0762 31.9844 59.8574C31.7891 60.0527 31.5449 60.248 31.252 60.4434C31.0566 60.541 30.8613 60.6875 30.666 60.8828C30.2754 61.7617 29.9824 62.2012 29.7871 62.2012C29.6895 62.2012 29.5918 62.2988 29.4941 62.4941C29.2988 62.6895 29.2012 63.0312 29.2012 63.5195C29.2988 63.9102 29.1035 64.2031 28.6152 64.3984C28.8105 64.6914 28.7129 64.9844 28.3223 65.2773C28.0293 65.5703 28.0781 65.8145 28.4688 66.0098C28.3711 66.3027 28.1758 66.5469 27.8828 66.7422C27.6875 66.8398 27.541 67.0352 27.4434 67.3281C27.1504 68.1094 27.0039 68.9883 27.0039 69.9648C27.0039 70.9414 27.0527 71.8203 27.1504 72.6016C27.1504 73.7734 27.2969 74.8965 27.5898 75.9707C27.8828 76.9473 28.127 77.9727 28.3223 79.0469C27.9316 79.4375 27.7363 79.7793 27.7363 80.0723C27.834 80.3652 27.5898 80.6582 27.0039 80.9512C26.3203 81.5371 25.8809 81.7812 25.6855 81.6836C25.4902 81.4883 25.2949 81.3906 25.0996 81.3906C24.2207 81.1953 23.7812 81.0488 23.7812 80.9512C23.7812 80.7559 23.7324 80.6094 23.6348 80.5117C23.1465 80.0234 22.8047 79.584 22.6094 79.1934C22.5117 78.8027 22.3652 78.2168 22.1699 77.4355L21.877 75.8242C21.7793 75.043 21.6816 74.2129 21.584 73.334C21.4863 72.4551 21.4863 71.625 21.584 70.8438V69.2324C21.584 68.1582 21.7305 67.1816 22.0234 66.3027C22.0234 66.1074 22.1211 65.8633 22.3164 65.5703C22.5117 65.1797 22.5117 64.8867 22.3164 64.6914C22.707 64.4961 22.9512 64.2031 23.0488 63.8125C23.2441 63.4219 23.4883 63.0801 23.7812 62.7871C23.6836 62.5918 23.6836 62.2988 23.7812 61.9082C23.8789 61.4199 23.7812 61.1758 23.4883 61.1758C23.7812 60.7852 24.123 60.4922 24.5137 60.2969C24.9043 60.0039 25.2461 59.6621 25.5391 59.2715C26.418 58.1973 27.0527 57.416 27.4434 56.9277C27.9316 56.4395 28.4199 56.1953 28.9082 56.1953C29.3965 55.0234 30.2266 54.2422 31.3984 53.8516C32.668 53.4609 33.6934 52.7285 34.4746 51.6543C35.2559 51.8496 35.8418 51.8008 36.2324 51.5078C36.7207 51.2148 37.2578 50.9707 37.8438 50.7754C39.8945 49.8965 41.7012 48.9199 43.2637 47.8457C44.9238 46.6738 46.4863 45.209 47.9512 43.4512C49.416 42.9629 50.5879 42.1816 51.4668 41.1074C52.3457 39.9355 53.2246 38.8125 54.1035 37.7383C54.1035 37.4453 54.2012 37.1035 54.3965 36.7129C54.5918 36.3223 54.543 36.0293 54.25 35.834C54.543 35.6387 54.6895 35.3457 54.6895 34.9551C54.7871 34.5645 54.9336 34.2227 55.1289 33.9297C55.6172 32.5625 56.0566 31.2441 56.4473 29.9746C56.8379 28.7051 56.5449 27.3867 55.5684 26.0195C55.7637 25.7266 55.8125 25.4336 55.7148 25.1406C55.7148 24.8477 55.7148 24.6035 55.7148 24.4082C55.5195 23.627 55.2754 22.748 54.9824 21.7715C54.7871 20.6973 54.3477 19.916 53.6641 19.4277C53.2734 19.0371 52.9316 18.6465 52.6387 18.2559C52.3457 17.8652 52.0039 17.4746 51.6133 17.084C51.0273 16.5957 50.3926 16.2539 49.709 16.0586C49.0254 15.8633 48.3906 15.5215 47.8047 15.0332C46.9258 15.2285 46.0957 15.1797 45.3145 14.8867C44.5332 14.4961 43.752 14.2031 42.9707 14.0078C41.7012 13.8125 40.7734 13.7637 40.1875 13.8613C39.6992 13.8613 39.2598 13.6172 38.8691 13.1289C38.0879 13.4219 37.3066 13.5684 36.5254 13.5684C35.7441 13.5684 34.9629 13.6172 34.1816 13.7148C33.6934 13.8125 33.2051 13.959 32.7168 14.1543C32.3262 14.3496 31.8867 14.4473 31.3984 14.4473C31.1055 14.5449 30.8125 14.5449 30.5195 14.4473C30.2266 14.3496 29.8848 14.3496 29.4941 14.4473C29.1035 14.5449 28.7617 14.6914 28.4688 14.8867C28.1758 14.9844 27.7852 15.082 27.2969 15.1797C24.5625 15.5703 21.9258 16.3516 19.3867 17.5234C16.9453 18.5977 14.8945 19.7207 13.2344 20.8926C13.2344 21.5762 12.9902 22.1621 12.502 22.6504C12.0137 23.1387 11.4766 23.4805 10.8906 23.6758C10.3047 23.7734 9.66992 23.6758 8.98633 23.3828C8.40039 22.9922 7.96094 22.3086 7.66797 21.332C7.17969 21.1367 6.69141 20.8926 6.20312 20.5996C5.71484 20.3066 5.37305 19.8672 5.17773 19.2812C4.49414 18.5 3.81055 17.9141 3.12695 17.5234C2.54102 17.1328 2.00391 16.4492 1.51562 15.4727C1.125 15.1797 0.832031 14.8867 0.636719 14.5938C0.539062 14.2031 0.392578 13.7637 0.197266 13.2754C0.685547 12.4941 1.27148 11.7617 1.95508 11.0781C2.73633 10.3945 3.51758 9.75977 4.29883 9.17383C4.5918 8.97852 4.88477 8.83203 5.17773 8.73438C5.4707 8.53906 5.61719 8.24609 5.61719 7.85547C6.30078 7.75781 7.13086 7.36719 8.10742 6.68359C9.18164 6 10.1094 5.51172 10.8906 5.21875C12.2578 4.82813 13.332 4.38867 14.1133 3.90039C14.8945 3.31445 15.7734 3.07031 16.75 3.16797C17.2383 2.58203 17.873 2.28906 18.6543 2.28906C19.4355 2.28906 20.168 2.24023 20.8516 2.14258C21.5352 2.04492 22.1699 1.94727 22.7559 1.84961C23.4395 1.6543 24.123 1.50781 24.8066 1.41016C26.1738 1.60547 27.1016 1.60547 27.5898 1.41016C28.0781 1.21484 28.5664 1.11719 29.0547 1.11719C30.1289 1.21484 30.7148 1.21484 30.8125 1.11719C30.9102 0.921875 31.0566 0.824219 31.252 0.824219C31.6426 0.824219 32.4238 0.873047 33.5957 0.970703C34.7676 0.970703 35.5488 1.01953 35.9395 1.11719C36.2324 1.11719 36.4766 1.21484 36.6719 1.41016C36.9648 1.50781 37.2578 1.60547 37.5508 1.70312C38.7227 1.70312 39.4551 1.80078 39.748 1.99609C40.041 2.19141 40.334 2.33789 40.627 2.43555C41.8965 2.82617 43.166 3.11914 44.4355 3.31445C45.8027 3.50977 47.0234 3.90039 48.0977 4.48633C49.0742 5.36523 49.709 5.85352 50.002 5.95117C50.2949 6.04883 50.5391 6.19531 50.7344 6.39062C51.418 6.78125 51.7598 7.02539 51.7598 7.12305C51.7598 7.2207 51.8574 7.31836 52.0527 7.41602C52.248 7.61133 52.4922 7.75781 52.7852 7.85547C53.0781 7.85547 53.3223 7.95312 53.5176 8.14844C53.7129 8.34375 53.9082 8.68555 54.1035 9.17383C54.2988 9.66211 54.543 10.0527 54.8359 10.3457C55.4219 10.9316 55.8613 11.6152 56.1543 12.3965C56.5449 13.0801 56.9844 13.7637 57.4727 14.4473C57.4727 14.5449 57.5703 14.8379 57.7656 15.3262C57.9609 15.8145 58.1562 16.4004 58.3516 17.084C58.6445 17.6699 58.8887 18.207 59.084 18.6953C59.377 19.1836 59.5723 19.4766 59.6699 19.5742C59.6699 20.2578 59.7676 20.9902 59.9629 21.7715C60.1582 22.5527 60.4512 23.1875 60.8418 23.6758C61.0371 24.2617 61.0859 24.8477 60.9883 25.4336C60.8906 26.0195 61.0859 26.5566 61.5742 27.0449ZM18.0684 13.4219C18.5566 12.8359 19.1426 12.4941 19.8262 12.3965C20.6074 12.2988 21.3398 12.1523 22.0234 11.957C22.707 11.7617 23.3418 11.5664 23.9277 11.3711C24.5137 11.0781 25.1484 10.8828 25.832 10.7852C27.2969 10.6875 28.2246 10.541 28.6152 10.3457C29.0059 10.0527 29.4453 9.85742 29.9336 9.75977C31.1055 9.75977 31.6914 9.71094 31.6914 9.61328C31.7891 9.41797 31.9355 9.32031 32.1309 9.32031C32.6191 9.22266 33.4004 9.125 34.4746 9.02734C35.6465 8.92969 36.4277 8.88086 36.8184 8.88086C37.1113 8.97852 37.3555 9.07617 37.5508 9.17383C37.8438 9.27148 38.1367 9.32031 38.4297 9.32031C39.6992 9.22266 40.4805 9.27148 40.7734 9.4668C41.0664 9.56445 41.4082 9.61328 41.7988 9.61328C42.9707 9.80859 44.1426 9.95508 45.3145 10.0527C46.4863 10.0527 47.6582 10.248 48.8301 10.6387C48.3418 10.248 47.8535 9.95508 47.3652 9.75977C46.877 9.4668 46.4375 9.07617 46.0469 8.58789C45.168 8.68555 44.3379 8.49023 43.5566 8.00195C42.873 7.51367 42.1406 7.17188 41.3594 6.97656C40.0898 6.68359 39.1621 6.48828 38.5762 6.39062C38.0879 6.29297 37.6973 6 37.4043 5.51172C36.623 5.70703 35.8418 5.75586 35.0605 5.6582C34.2793 5.56055 33.498 5.51172 32.7168 5.51172C32.2285 5.51172 31.7402 5.60937 31.252 5.80469C30.7637 5.90234 30.2754 5.95117 29.7871 5.95117C29.4941 5.95117 29.2012 5.90234 28.9082 5.80469C28.6152 5.60937 28.3223 5.51172 28.0293 5.51172C27.541 5.60937 27.1016 5.70703 26.7109 5.80469C26.418 5.90234 26.0762 5.95117 25.6855 5.95117C24.0254 5.95117 22.707 6.04883 21.7305 6.24414C20.7539 6.3418 19.8262 6.53711 18.9473 6.83008C17.5801 7.2207 16.2617 7.66016 14.9922 8.14844C13.7227 8.63672 12.5508 9.22266 11.4766 9.90625C10.793 10.2969 10.1094 10.6875 9.42578 11.0781C8.74219 11.3711 8.15625 11.8105 7.66797 12.3965L5.91016 13.2754C5.91016 13.959 6.05664 14.3984 6.34961 14.5938C6.74023 14.7891 7.08203 15.0332 7.375 15.3262C7.86328 15.8145 8.30273 16.3027 8.69336 16.791C9.08398 17.1816 9.52344 17.6211 10.0117 18.1094C10.3047 17.8164 10.8906 17.4258 11.7695 16.9375C12.6484 16.3516 13.0879 15.8633 13.0879 15.4727C14.1621 15.375 14.9922 15.0332 15.5781 14.4473C16.2617 13.8613 17.0918 13.5195 18.0684 13.4219Z" fill="white" fill-opacity="0.2"/>
</svg>
