<svg width="411" height="352" viewBox="0 0 411 352" fill="none" xmlns="http://www.w3.org/2000/svg">
<path d="M287.055 108.997C287.906 103.319 296.094 103.318 296.945 108.997L305.743 167.706C306.075 169.924 307.844 171.649 310.069 171.926L371.172 179.538C377.014 180.266 377.014 188.734 371.172 189.462L310.069 197.074C307.844 197.351 306.075 199.076 305.743 201.294L296.945 260.003C296.094 265.681 287.906 265.682 287.055 260.003L278.257 201.294C277.925 199.076 276.156 197.351 273.931 197.074L212.828 189.462C206.986 188.734 206.986 180.266 212.828 179.538L273.931 171.926C276.156 171.649 277.925 169.924 278.257 167.706L287.055 108.997Z" fill="white" fill-opacity="0.2"/>
<path d="M195.055 217.044C195.905 211.364 204.095 211.364 204.945 217.044L210.498 254.151C210.83 256.369 212.598 258.094 214.824 258.372L252.229 263.038C258.07 263.767 258.07 272.233 252.229 272.962L214.824 277.628C212.598 277.906 210.83 279.631 210.498 281.849L204.945 318.956C204.095 324.636 195.905 324.636 195.055 318.956L189.502 281.849C189.17 279.631 187.402 277.906 185.176 277.628L147.771 272.962C141.93 272.233 141.93 263.767 147.771 263.038L185.176 258.372C187.402 258.094 189.17 256.369 189.502 254.151L195.055 217.044Z" fill="white" fill-opacity="0.2"/>
<path d="M140.555 20.973C141.407 15.295 149.593 15.295 150.445 20.973L163.87 110.499C164.203 112.717 165.972 114.442 168.197 114.719L263.143 126.538C268.986 127.266 268.986 135.734 263.143 136.462L168.197 148.281C165.972 148.558 164.203 150.283 163.87 152.501L150.445 242.027C149.593 247.705 141.407 247.705 140.555 242.027L127.13 152.501C126.797 150.283 125.028 148.558 122.803 148.281L27.8571 136.462C22.014 135.734 22.0139 127.266 27.8571 126.538L122.803 114.719C125.028 114.442 126.797 112.717 127.13 110.499L140.555 20.973Z" fill="white" fill-opacity="0.2"/>
</svg>
