<svg width="104" height="178" viewBox="0 0 104 178" fill="none" xmlns="http://www.w3.org/2000/svg">
<path d="M45.584 147.436L51.4434 148.656C52.2572 149.47 53.1523 150.284 54.1289 151.098C55.1055 151.911 56.1634 152.644 57.3027 153.295C57.6283 154.434 57.9538 155.411 58.2793 156.225C58.6048 157.038 58.7676 158.096 58.7676 159.398C58.7676 160.375 58.849 161.596 59.0117 163.061C59.1745 164.363 59.1745 165.502 59.0117 166.479C58.849 167.455 58.4421 168.35 57.791 169.164C57.3027 169.978 57.2214 170.954 57.5469 172.094C56.2448 172.257 55.2682 172.663 54.6172 173.314C53.9661 173.803 53.2337 174.21 52.4199 174.535C51.6061 174.861 50.7923 175.023 49.9785 175.023C49.3275 175.023 48.5951 175.105 47.7812 175.268C46.1536 175.593 44.3633 176.081 42.4102 176.732C40.6198 177.546 39.0736 177.139 37.7715 175.512C36.9577 175.349 36.2253 175.186 35.5742 175.023C35.0859 174.698 34.4349 174.454 33.6211 174.291C32.8073 173.477 32.0749 172.663 31.4238 171.85C30.9355 170.873 30.2031 170.141 29.2266 169.652C29.2266 167.862 29.0638 166.072 28.7383 164.281C28.4128 162.328 28.4128 160.456 28.7383 158.666C28.901 157.852 29.2266 157.12 29.7148 156.469C30.2031 155.818 30.2845 155.085 29.959 154.271C30.7728 153.946 31.4238 153.376 31.9121 152.562C32.5632 151.749 33.2956 151.098 34.1094 150.609C34.7604 150.284 35.4928 150.121 36.3066 150.121C37.2832 149.958 37.9342 149.47 38.2598 148.656C39.0736 148.819 39.806 148.819 40.457 148.656C41.2708 148.331 42.0846 148.168 42.8984 148.168C43.3867 148.005 43.7122 147.842 43.875 147.68C44.2005 147.354 44.7702 147.273 45.584 147.436ZM49.9785 160.863C49.8158 160.538 49.1647 159.887 48.0254 158.91C47.0488 157.771 46.3978 157.12 46.0723 156.957C44.7702 156.469 43.6309 156.387 42.6543 156.713C41.6777 156.876 40.7012 156.876 39.7246 156.713C38.5853 157.852 38.097 158.585 38.2598 158.91C38.4225 159.073 38.4225 159.236 38.2598 159.398C37.2832 160.863 36.7949 162.328 36.7949 163.793C36.7949 165.258 37.0391 166.397 37.5273 167.211C38.9922 166.885 40.457 167.048 41.9219 167.699C43.3867 168.188 44.7702 168.432 46.0723 168.432C49.1647 166.641 50.4668 164.118 49.9785 160.863ZM102.957 44.4082C102.632 45.7103 102.469 47.1751 102.469 48.8027C102.632 50.2676 102.876 51.651 103.201 52.9531C102.387 53.2786 101.98 53.9297 101.98 54.9062C101.98 55.7201 101.899 56.4525 101.736 57.1035C100.76 59.8704 100.027 61.7422 99.5391 62.7188C99.2135 63.6953 99.0508 64.8346 99.0508 66.1367C98.237 65.974 97.8301 66.2995 97.8301 67.1133C97.9928 67.9271 97.5859 68.1712 96.6094 67.8457C96.7721 68.4967 96.6094 68.9036 96.1211 69.0664C95.6328 69.2292 95.4701 69.7174 95.6328 70.5312C95.1445 70.5312 94.4935 70.9382 93.6797 71.752C92.8659 72.403 91.9707 73.2168 90.9941 74.1934C90.0176 75.1699 89.041 76.1465 88.0645 77.123C87.2507 77.9368 86.5182 78.5065 85.8672 78.832C85.0534 79.8086 84.1582 80.541 83.1816 81.0293C82.3678 81.3548 81.554 81.9245 80.7402 82.7383C79.6009 83.8776 78.4616 84.6914 77.3223 85.1797C76.3457 85.668 75.9388 86.319 76.1016 87.1328C73.8229 87.9466 71.6257 88.9232 69.5098 90.0625C67.5566 91.0391 65.4408 91.8529 63.1621 92.5039C61.86 93.806 60.151 94.9453 58.0352 95.9219C56.082 96.7357 54.6172 97.7936 53.6406 99.0957C53.3151 99.4212 52.9082 99.7467 52.4199 100.072C52.0944 100.235 51.7689 100.479 51.4434 100.805C50.7923 102.27 50.304 103.002 49.9785 103.002C49.8158 103.002 49.653 103.165 49.4902 103.49C49.1647 103.816 49.002 104.385 49.002 105.199C49.1647 105.85 48.8392 106.339 48.0254 106.664C48.3509 107.152 48.1882 107.641 47.5371 108.129C47.0488 108.617 47.1302 109.024 47.7812 109.35C47.6185 109.838 47.293 110.245 46.8047 110.57C46.4792 110.733 46.235 111.059 46.0723 111.547C45.584 112.849 45.3398 114.314 45.3398 115.941C45.3398 117.569 45.4212 119.034 45.584 120.336C45.584 122.289 45.8281 124.161 46.3164 125.951C46.8047 127.579 47.2116 129.288 47.5371 131.078C46.8861 131.729 46.5605 132.299 46.5605 132.787C46.7233 133.275 46.3164 133.764 45.3398 134.252C44.2005 135.229 43.4681 135.635 43.1426 135.473C42.8171 135.147 42.4915 134.984 42.166 134.984C40.7012 134.659 39.9688 134.415 39.9688 134.252C39.9688 133.926 39.8874 133.682 39.7246 133.52C38.9108 132.706 38.3411 131.973 38.0156 131.322C37.8529 130.671 37.6087 129.695 37.2832 128.393L36.7949 125.707C36.6322 124.405 36.4694 123.021 36.3066 121.557C36.1439 120.092 36.1439 118.708 36.3066 117.406V114.721C36.3066 112.93 36.5508 111.303 37.0391 109.838C37.0391 109.512 37.2018 109.105 37.5273 108.617C37.8529 107.966 37.8529 107.478 37.5273 107.152C38.1784 106.827 38.5853 106.339 38.748 105.688C39.0736 105.036 39.4805 104.467 39.9688 103.979C39.806 103.653 39.806 103.165 39.9688 102.514C40.1315 101.7 39.9688 101.293 39.4805 101.293C39.9688 100.642 40.5384 100.154 41.1895 99.8281C41.8405 99.3398 42.4102 98.7702 42.8984 98.1191C44.3633 96.3288 45.4212 95.0267 46.0723 94.2129C46.8861 93.3991 47.6999 92.9922 48.5137 92.9922C49.3275 91.0391 50.7109 89.737 52.6641 89.0859C54.7799 88.4349 56.4889 87.2142 57.791 85.4238C59.0931 85.7493 60.0697 85.668 60.7207 85.1797C61.5345 84.6914 62.4297 84.2845 63.4062 83.959C66.8242 82.4941 69.8353 80.8665 72.4395 79.0762C75.2064 77.123 77.8105 74.6816 80.252 71.752C82.6934 70.9382 84.6465 69.6361 86.1113 67.8457C87.5762 65.8926 89.041 64.0208 90.5059 62.2305C90.5059 61.7422 90.6686 61.1725 90.9941 60.5215C91.3197 59.8704 91.2383 59.3822 90.75 59.0566C91.2383 58.7311 91.4824 58.2428 91.4824 57.5918C91.6452 56.9408 91.8893 56.3711 92.2148 55.8828C93.0286 53.6042 93.7611 51.4069 94.4121 49.291C95.0632 47.1751 94.5749 44.9779 92.9473 42.6992C93.2728 42.2109 93.3542 41.7227 93.1914 41.2344C93.1914 40.7461 93.1914 40.3392 93.1914 40.0137C92.8659 38.7116 92.459 37.2467 91.9707 35.6191C91.6452 33.8288 90.9128 32.5267 89.7734 31.7129C89.1224 31.0618 88.5527 30.4108 88.0645 29.7598C87.5762 29.1087 87.0065 28.4577 86.3555 27.8066C85.3789 26.9928 84.321 26.4232 83.1816 26.0977C82.0423 25.7721 80.9844 25.2025 80.0078 24.3887C78.543 24.7142 77.1595 24.6328 75.8574 24.1445C74.5553 23.4935 73.2533 23.0052 71.9512 22.6797C69.8353 22.3542 68.2891 22.2728 67.3125 22.4355C66.4987 22.4355 65.7663 22.0286 65.1152 21.2148C63.8132 21.7031 62.5111 21.9473 61.209 21.9473C59.9069 21.9473 58.6048 22.0286 57.3027 22.1914C56.4889 22.3542 55.6751 22.5983 54.8613 22.9238C54.2103 23.2493 53.4779 23.4121 52.6641 23.4121C52.1758 23.5749 51.6875 23.5749 51.1992 23.4121C50.7109 23.2493 50.1413 23.2493 49.4902 23.4121C48.8392 23.5749 48.2695 23.819 47.7812 24.1445C47.293 24.3073 46.6419 24.4701 45.8281 24.6328C41.2708 25.2839 36.8763 26.5859 32.6445 28.5391C28.5755 30.3294 25.1576 32.2012 22.3906 34.1543C22.3906 35.2936 21.9837 36.2702 21.1699 37.084C20.3561 37.8978 19.4609 38.4674 18.4844 38.793C17.5078 38.9557 16.4499 38.793 15.3105 38.3047C14.334 37.6536 13.6016 36.5143 13.1133 34.8867C12.2995 34.5612 11.4857 34.1543 10.6719 33.666C9.85807 33.1777 9.28841 32.4453 8.96289 31.4688C7.82357 30.1667 6.68424 29.1901 5.54492 28.5391C4.56836 27.888 3.67318 26.7487 2.85938 25.1211C2.20833 24.6328 1.72005 24.1445 1.39453 23.6562C1.23177 23.0052 0.98763 22.2728 0.662109 21.459C1.47591 20.1569 2.45247 18.9362 3.5918 17.7969C4.89388 16.6576 6.19596 15.5996 7.49805 14.623C7.98633 14.2975 8.47461 14.0534 8.96289 13.8906C9.45117 13.5651 9.69531 13.0768 9.69531 12.4258C10.8346 12.263 12.2181 11.612 13.8457 10.4727C15.6361 9.33333 17.1823 8.51953 18.4844 8.03125C20.763 7.38021 22.5534 6.64779 23.8555 5.83398C25.1576 4.85742 26.6224 4.45052 28.25 4.61328C29.0638 3.63672 30.1217 3.14844 31.4238 3.14844C32.7259 3.14844 33.9466 3.06706 35.0859 2.9043C36.2253 2.74154 37.2832 2.57878 38.2598 2.41602C39.3991 2.09049 40.5384 1.84635 41.6777 1.68359C43.9564 2.00911 45.5026 2.00911 46.3164 1.68359C47.1302 1.35807 47.944 1.19531 48.7578 1.19531C50.5482 1.35807 51.5247 1.35807 51.6875 1.19531C51.8503 0.869792 52.0944 0.707031 52.4199 0.707031C53.071 0.707031 54.373 0.788411 56.3262 0.951172C58.2793 0.951172 59.5814 1.03255 60.2324 1.19531C60.7207 1.19531 61.1276 1.35807 61.4531 1.68359C61.9414 1.84635 62.4297 2.00911 62.918 2.17188C64.8711 2.17188 66.0918 2.33464 66.5801 2.66016C67.0684 2.98568 67.5566 3.22982 68.0449 3.39258C70.1608 4.04362 72.2767 4.5319 74.3926 4.85742C76.6712 5.18294 78.7057 5.83398 80.4961 6.81055C82.1237 8.27539 83.1816 9.08919 83.6699 9.25195C84.1582 9.41471 84.5651 9.65885 84.8906 9.98438C86.0299 10.6354 86.5996 11.0423 86.5996 11.2051C86.5996 11.3678 86.7624 11.5306 87.0879 11.6934C87.4134 12.0189 87.8203 12.263 88.3086 12.4258C88.7969 12.4258 89.2038 12.5885 89.5293 12.9141C89.8548 13.2396 90.1803 13.8092 90.5059 14.623C90.8314 15.4368 91.2383 16.0879 91.7266 16.5762C92.7031 17.5527 93.4355 18.6921 93.9238 19.9941C94.5749 21.1335 95.3073 22.2728 96.1211 23.4121C96.1211 23.5749 96.2839 24.0632 96.6094 24.877C96.9349 25.6908 97.2604 26.6673 97.5859 27.8066C98.0742 28.7832 98.4811 29.6784 98.8066 30.4922C99.2949 31.306 99.6204 31.7943 99.7832 31.957C99.7832 33.0964 99.946 34.3171 100.271 35.6191C100.597 36.9212 101.085 37.9792 101.736 38.793C102.062 39.7695 102.143 40.7461 101.98 41.7227C101.818 42.6992 102.143 43.5944 102.957 44.4082ZM30.4473 21.7031C31.2611 20.7266 32.2376 20.1569 33.377 19.9941C34.679 19.8314 35.8997 19.5872 37.0391 19.2617C38.1784 18.9362 39.2363 18.6107 40.2129 18.2852C41.1895 17.7969 42.2474 17.4714 43.3867 17.3086C45.8281 17.1458 47.3743 16.9017 48.0254 16.5762C48.6764 16.0879 49.4089 15.7624 50.2227 15.5996C52.1758 15.5996 53.1523 15.5182 53.1523 15.3555C53.3151 15.0299 53.5592 14.8672 53.8848 14.8672C54.6986 14.7044 56.0007 14.5417 57.791 14.3789C59.7441 14.2161 61.0462 14.1348 61.6973 14.1348C62.1855 14.2975 62.5924 14.4603 62.918 14.623C63.4062 14.7858 63.8945 14.8672 64.3828 14.8672C66.4987 14.7044 67.8008 14.7858 68.2891 15.1113C68.7773 15.2741 69.347 15.3555 69.998 15.3555C71.9512 15.681 73.9043 15.9251 75.8574 16.0879C77.8105 16.0879 79.7637 16.4134 81.7168 17.0645C80.903 16.4134 80.0892 15.9251 79.2754 15.5996C78.4616 15.1113 77.7292 14.4603 77.0781 13.6465C75.6133 13.8092 74.2298 13.4837 72.9277 12.6699C71.7884 11.8561 70.5677 11.2865 69.2656 10.9609C67.1497 10.4727 65.6035 10.1471 64.627 9.98438C63.8132 9.82161 63.1621 9.33333 62.6738 8.51953C61.3717 8.84505 60.0697 8.92643 58.7676 8.76367C57.4655 8.60091 56.1634 8.51953 54.8613 8.51953C54.0475 8.51953 53.2337 8.68229 52.4199 9.00781C51.6061 9.17057 50.7923 9.25195 49.9785 9.25195C49.4902 9.25195 49.002 9.17057 48.5137 9.00781C48.0254 8.68229 47.5371 8.51953 47.0488 8.51953C46.235 8.68229 45.5026 8.84505 44.8516 9.00781C44.3633 9.17057 43.7936 9.25195 43.1426 9.25195C40.3757 9.25195 38.1784 9.41471 36.5508 9.74023C34.9232 9.90299 33.377 10.2285 31.9121 10.7168C29.6335 11.3678 27.4362 12.1003 25.3203 12.9141C23.2044 13.7279 21.2513 14.7044 19.4609 15.8438C18.3216 16.4948 17.1823 17.1458 16.043 17.7969C14.9036 18.2852 13.9271 19.0176 13.1133 19.9941L10.1836 21.459C10.1836 22.5983 10.4277 23.3307 10.916 23.6562C11.5671 23.9818 12.1367 24.3887 12.625 24.877C13.4388 25.6908 14.1712 26.5046 14.8223 27.3184C15.4733 27.9694 16.2057 28.7018 17.0195 29.5156C17.5078 29.0273 18.4844 28.3763 19.9492 27.5625C21.4141 26.5859 22.1465 25.7721 22.1465 25.1211C23.9368 24.9583 25.3203 24.3887 26.2969 23.4121C27.4362 22.4355 28.8197 21.8659 30.4473 21.7031Z" fill="white" fill-opacity="0.2"/>
</svg>
