<svg width="148" height="135" viewBox="0 0 148 135" fill="none" xmlns="http://www.w3.org/2000/svg">
<path d="M67.1019 5.98066C68.4385 -1.76579 79.5615 -1.76577 80.8981 5.98068L88.2292 48.471C88.8742 52.2095 92.38 54.7538 96.1344 54.208L139.66 47.8798C147.648 46.7185 150.934 57.7649 143.611 61.1583L105.757 78.6981C102.058 80.4125 100.6 84.9136 102.594 88.471L122.729 124.41C126.615 131.344 117.769 138.361 111.901 132.999L78.7217 102.684C76.0479 100.241 71.9521 100.241 69.2783 102.684L36.099 132.999C30.2308 138.361 21.3852 131.344 25.2705 124.41L45.4064 88.471C47.3995 84.9136 45.9423 80.4125 42.2426 78.6981L4.38943 61.1583C-2.93389 57.7649 0.352184 46.7185 8.33952 47.8798L51.8656 54.208C55.62 54.7538 59.1258 52.2095 59.7708 48.471L67.1019 5.98066Z" fill="white" fill-opacity="0.2"/>
</svg>
