<svg width="114" height="112" viewBox="0 0 114 112" fill="none" xmlns="http://www.w3.org/2000/svg">
<path d="M52.0551 5.04443C52.905 -0.63559 61.095 -0.635584 61.9449 5.04443L67.4977 42.1506C67.8296 44.3688 69.5981 46.0945 71.8237 46.3721L109.229 51.0385C115.07 51.7672 115.07 60.2328 109.229 60.9615L71.8237 65.6279C69.598 65.9055 67.8296 67.6312 67.4977 69.8494L61.9449 106.956C61.095 112.636 52.905 112.636 52.0551 106.956L46.5023 69.8494C46.1704 67.6312 44.4019 65.9055 42.1763 65.6279L4.77139 60.9615C-1.07 60.2328 -1.06998 51.7672 4.77141 51.0385L42.1763 46.3721C44.402 46.0945 46.1704 44.3688 46.5023 42.1506L52.0551 5.04443Z" fill="white" fill-opacity="0.2"/>
</svg>
