<svg width="245" height="231" viewBox="0 0 245 231" fill="none" xmlns="http://www.w3.org/2000/svg">
<path d="M117.555 4.97296C118.407 -0.705011 126.593 -0.705008 127.445 4.97296L140.87 94.4986C141.203 96.7166 142.972 98.4417 145.197 98.7188L240.143 110.538C245.986 111.266 245.986 119.734 240.143 120.462L145.197 132.281C142.972 132.558 141.203 134.283 140.87 136.501L127.445 226.027C126.593 231.705 118.407 231.705 117.555 226.027L104.13 136.501C103.797 134.283 102.028 132.558 99.8028 132.281L4.85707 120.462C-0.986042 119.734 -0.986054 111.266 4.85705 110.538L99.8028 98.7188C102.028 98.4417 103.797 96.7166 104.13 94.4986L117.555 4.97296Z" fill="white" fill-opacity="0.2"/>
</svg>
