<svg width="299" height="256" viewBox="0 0 299 256" fill="none" xmlns="http://www.w3.org/2000/svg">
<path d="M206.564 85.6969C207.415 80.0182 215.602 80.0182 216.453 85.6969L221.463 119.131C221.796 121.349 223.564 123.074 225.79 123.351L259.172 127.51C265.014 128.238 265.014 136.705 259.172 137.433L225.79 141.592C223.564 141.869 221.796 143.594 221.463 145.813L216.453 179.246C215.602 184.925 207.415 184.925 206.564 179.246L201.553 145.813C201.221 143.594 199.452 141.869 197.227 141.592L163.845 137.433C158.002 136.705 158.002 128.238 163.845 127.51L197.227 123.351C199.452 123.074 201.221 121.349 201.553 119.131L206.564 85.6969Z" fill="white" fill-opacity="0.2"/>
<path d="M138.923 165.148C139.773 159.468 147.963 159.468 148.813 165.148L151.437 182.687C151.769 184.905 153.537 186.631 155.763 186.909L171.737 188.901C177.578 189.63 177.578 198.096 171.737 198.824L155.763 200.817C153.537 201.095 151.769 202.821 151.437 205.039L148.813 222.577C147.963 228.257 139.773 228.257 138.923 222.577L136.298 205.039C135.966 202.821 134.198 201.095 131.972 200.817L115.998 198.824C110.157 198.096 110.157 189.63 115.998 188.901L131.972 186.909C134.198 186.631 135.966 184.905 136.298 182.687L138.923 165.148Z" fill="white" fill-opacity="0.2"/>
<path d="M98.8532 20.973C99.7046 15.295 107.891 15.295 108.743 20.973L117.155 77.0707C117.488 79.2886 119.257 81.0138 121.482 81.2908L179.739 88.543C185.582 89.2704 185.582 97.739 179.739 98.4664L121.482 105.719C119.257 105.996 117.488 107.721 117.155 109.939L108.743 166.036C107.891 171.714 99.7046 171.714 98.8532 166.036L90.4406 109.939C90.108 107.721 88.3392 105.996 86.1136 105.719L27.8571 98.4664C22.014 97.739 22.014 89.2704 27.8571 88.543L86.1136 81.2908C88.3392 81.0138 90.108 79.2886 90.4406 77.0706L98.8532 20.973Z" fill="white" fill-opacity="0.2"/>
</svg>
