<svg width="168" height="161" viewBox="0 0 168 161" fill="none" xmlns="http://www.w3.org/2000/svg">
<path d="M79.0552 4.99718C79.9062 -0.681488 88.0938 -0.681513 88.9448 4.99715L97.7426 63.7057C98.0749 65.9238 99.8436 67.6491 102.069 67.9264L163.172 75.5383C169.014 76.2662 169.014 84.7338 163.172 85.4616L102.069 93.0736C99.8436 93.3509 98.0749 95.0762 97.7426 97.2943L88.9448 156.003C88.0938 161.681 79.9062 161.682 79.0552 156.003L70.2574 97.2943C69.9251 95.0762 68.1564 93.3509 65.9308 93.0736L4.82809 85.4617C-1.01443 84.7338 -1.01448 76.2662 4.82805 75.5384L65.9308 67.9264C68.1564 67.6491 69.9251 65.9238 70.2574 63.7057L79.0552 4.99718Z" fill="white" fill-opacity="0.2"/>
</svg>
